Coordinates
version=1
nRows=12
nColumns=33
inDegrees=yes

Units are S.I. units (second, meters, Newtons, ...)
Angles are in degrees.

endheader
time	ground_thorax_rot_x	ground_thorax_rot_y	ground_thorax_rot_z	ground_thorax_tx	ground_thorax_ty	ground_thorax_tz	clav_prot_r	clav_elev_r	scapula_abduction_r	scapula_elevation_r	scapula_upward_rot_r	scapula_winging_r	shoulder_elv_r	plane_of_elev_r	axial_rot_r	elbow_flexion_r	pro_sup_r	wrist_flex_r	wrist_dev_r	clav_prot_l	clav_elev_l	scapula_abduction_l	scapula_elevation_l	scapula_upward_rot_l	scapula_winging_l	shoulder_elv_l	plane_of_elev_l	axial_rot_l	elbow_flexion_l	pro_sup_l	wrist_flex_l	wrist_dev_l
      3.52000000	    -32.77790299	    -26.04680797	     33.51358783	     -8.72669017	    810.97715497	    -44.72100006	     25.89931852	    -45.00000000	     38.23150153	    -45.00000000	    -45.00000000	  -4413.10814566	  -1726.09070132	     23.95902991	    179.99999979	   1802.64544258	   -173.51566026	     13.67795555	     13.94644546	      2.07836357	     28.49094612	    -26.67290826	    -45.00000000	    -45.00000000	  -4604.10366128	  -2423.53067253	     18.40576342	   -179.99999979	   1798.72892681	   -177.31041867	     11.18546449	    -15.37809981
      3.53000000	    -33.00387216	    -25.98525865	     33.03116626	    -10.72604300	    812.66209850	    -44.94440470	     25.90001373	    -45.00000000	     38.33364862	    -45.00000000	    -45.00000000	  -4413.32661193	  -1726.08402872	     24.19465561	    179.99999979	   1802.53563670	   -173.92426740	     13.75584573	     14.16788393	      2.07335934	     28.55211139	    -26.69763271	    -45.00000000	    -45.00000000	  -4603.75841944	  -2423.30604403	     18.63462887	   -179.99999979	   1798.72987249	   -177.47448346	     11.27162786	    -15.39798001
      3.54000000	    -33.14288697	    -25.91044165	     32.72168790	    -12.74834968	    814.35396999	    -45.15242521	     25.86986468	    -45.00000000	     38.32600304	    -45.00000000	    -45.00000000	  -4413.52042273	  -1725.94082530	     24.32183650	    179.99999979	   1802.50691435	   -174.39298028	     13.78762881	     14.27247231	      2.07524571	     28.62187886	    -26.79114897	    -45.00000000	    -45.00000000	  -4603.50139154	  -2423.17472978	     18.74830491	   -179.99999979	   1798.64633983	   -177.61999798	     11.29547986	    -15.46898578
      3.55000000	    -33.31598832	    -25.82958492	     32.34465492	    -14.79219697	    816.05242477	    -45.34603952	     25.81362931	    -45.00000000	     38.36933784	    -45.00000000	    -45.00000000	  -4413.68046823	  -1725.82477352	     24.40108152	    179.99999979	   1802.41392940	   -174.91936651	     13.81762205	     14.34110160	      2.10974565	     28.67075105	    -26.93597046	    -45.00000000	    -45.00000000	  -4603.32309496	  -2423.05531995	     18.77276211	   -179.99999979	   1798.57785614	   -177.75569035	     11.27640806	    -15.54310214
      3.56000000	    -33.45997250	    -25.77320207	     32.02579266	    -16.83855349	    817.74567654	    -45.52656353	     25.80207445	    -45.00000000	     38.33171251	    -45.00000000	    -45.00000000	  -4413.87468768	  -1725.67492454	     24.50480611	    179.99999979	   1802.33212702	   -175.48611216	     13.82856993	     14.41648211	      2.13840437	     28.69890458	    -27.00212763	    -45.00000000	    -45.00000000	  -4603.09531789	  -2422.96358709	     18.81873591	   -179.99999979	   1798.48315551	   -177.88639227	     11.28034189	    -15.62176926
      3.57000000	    -33.65498263	    -25.66747433	     31.59622573	    -18.88109942	    819.42985614	    -45.69785792	     25.75574831	    -45.00000000	     38.32623568	    -45.00000000	    -45.00000000	  -4414.01973074	  -1725.56060835	     24.61074002	    179.99999979	   1802.25949738	   -176.05921098	     13.84331801	     14.49843744	      2.17781134	     28.75703900	    -27.14309949	    -45.00000000	    -45.00000000	  -4602.93616411	  -2422.81789400	     18.88463605	   -179.99999979	   1798.47218477	   -178.03360902	     11.28175775	    -15.68050299
      3.58000000	    -33.81031647	    -25.56496935	     31.23433215	    -20.91919723	    821.10527918	    -45.86428837	     25.74090929	    -45.00000000	     38.30915885	    -45.00000000	    -45.00000000	  -4414.20336150	  -1725.41283978	     24.70386981	    179.99999979	   1802.23022533	   -176.65667825	     13.84539865	     14.56872543	      2.17039283	     28.79645998	    -27.25094337	    -45.00000000	    -45.00000000	  -4602.70268556	  -2422.74928669	     18.96409572	   -179.99999979	   1798.42717088	   -178.18275665	     11.31027863	    -15.76054875
      3.59000000	    -33.95708308	    -25.41003876	     30.83741194	    -22.95684729	    822.77300348	    -46.02975014	     25.70778947	    -45.00000000	     38.35994495	    -45.00000000	    -44.76042518	  -4414.41217614	  -1725.28150595	     24.75465961	    179.99999979	   1802.24580763	   -177.25446863	     13.86054031	     14.61399695	      2.07707354	     28.91623929	    -27.39917697	    -45.00000000	    -45.00000000	  -4602.53089074	  -2422.67132108	     19.11070882	   -179.99999979	   1798.49230066	   -178.30907128	     11.33145592	    -15.84808488
      3.60000000	    -34.15579709	    -25.27695949	     30.35618322	    -24.98693946	    824.42588144	    -46.19578718	     25.63981604	    -45.00000000	     38.44910750	    -45.00000000	    -44.58818943	  -4414.58298318	  -1725.20795344	     24.81967959	    179.99999979	   1802.20390283	   -177.79359476	     13.87854683	     14.67689889	      2.06488670	     29.00006905	    -27.50620965	    -45.00000000	    -45.00000000	  -4602.34277591	  -2422.57608872	     19.16926723	   -179.99999979	   1798.43712110	   -178.46337375	     11.32913245	    -15.95313544
      3.61000000	    -34.43745762	    -24.96758314	     29.62553061	    -27.01039926	    826.06264815	    -46.36343497	     25.52010154	    -45.00000000	     38.63848254	    -45.00000000	    -44.02949950	  -4414.72913390	  -1725.18280147	     24.79006190	    179.99999979	   1802.11803251	   -178.22602411	     13.89932367	     14.72185978	      2.19901380	     29.00593972	    -27.68571787	    -45.00000000	    -45.00000000	  -4602.31633965	  -2422.42982753	     19.14083506	   -179.99999979	   1798.32076769	   -178.61759957	     11.22329448	    -16.05307669
      3.62000000	    -34.57243913	    -24.89132575	     29.28206814	    -29.02729662	    827.68157814	    -46.53270383	     25.53010542	    -45.00000000	     38.63307542	    -45.00000000	    -43.98709159	  -4414.91343898	  -1725.05221884	     24.90498463	    179.99999979	   1802.14097596	   -178.67572321	     13.92578738	     14.76788328	      2.12672473	     29.08140542	    -27.77547570	    -45.00000000	    -45.00000000	  -4602.11026561	  -2422.35033031	     19.24743948	   -179.99999979	   1798.31701895	   -178.79133509	     11.26707409	    -16.12313581
      3.63000000	    -34.87201582	    -24.53459999	     28.49039013	    -31.02263099	    829.26945518	    -46.70170917	     25.34298255	    -45.00000000	     38.92248677	    -45.00000000	    -43.24861955	  -4415.03414692	  -1725.06099616	     24.79729148	    179.99999979	   1802.09787093	   -179.01977565	     13.95353836	     14.79260955	      2.25666992	     29.09132168	    -27.96863027	    -45.00000000	    -45.00000000	  -4602.08621131	  -2422.27491486	     19.14566052	   -179.99999979	   1798.12266070	   -178.94577027	     11.12021251	    -16.26324542
